# Blender 4.3.2
# www.blender.org
o Text
v 0.475290 0.100000 -0.158389
v 0.419093 0.100000 -0.094441
v 0.352590 0.100000 -0.042580
v 0.276067 0.100000 -0.003395
v 0.234166 0.100000 0.011331
v 0.143272 0.100000 0.030970
v 0.042804 0.100000 0.037520
v -0.033851 0.100000 0.033983
v -0.105691 0.100000 0.023427
v -0.233358 0.100000 -0.018261
v -0.288544 0.100000 -0.049150
v -0.337454 0.100000 -0.086521
v -0.379669 0.100000 -0.130127
v -0.442453 0.100000 -0.234669
v -0.474495 0.100000 -0.359681
v -0.478541 0.100000 -0.428903
v -0.475612 0.100000 -0.485945
v -0.466644 0.100000 -0.544814
v -0.451300 0.100000 -0.604406
v -0.429211 0.100000 -0.663502
v -0.399985 0.100000 -0.720839
v -0.363216 0.100000 -0.775100
v -0.318518 0.100000 -0.824905
v -0.134088 0.100000 -0.932989
v -0.055409 0.100000 -0.950482
v 0.031803 0.100000 -0.956553
v 0.153659 0.100000 -0.942956
v 0.261232 0.100000 -0.903839
v 0.308637 0.100000 -0.875501
v 0.351177 0.100000 -0.841761
v 0.478560 0.100000 -0.548018
v 0.466413 0.100000 -0.453469
v 0.452063 0.100000 -0.408402
v 0.351194 0.100000 -0.255607
v 0.317302 0.100000 -0.227022
v 0.280722 0.100000 -0.203472
v 0.201050 0.100000 -0.174337
v 0.159788 0.100000 -0.170453
v 0.068747 0.100000 -0.197253
v 0.003064 0.100000 -0.196226
v -0.040906 0.100000 -0.177998
v -0.086351 0.100000 -0.171448
v -0.115351 0.100000 -0.173642
v -0.215969 0.100000 -0.223104
v -0.235503 0.100000 -0.244106
v -0.252392 0.100000 -0.267926
v -0.290841 0.100000 -0.385980
v -0.289775 0.100000 -0.462371
v -0.231382 0.100000 -0.617677
v -0.207261 0.100000 -0.650508
v 0.039827 0.100000 -0.749591
v 0.123404 0.100000 -0.708668
v 0.130972 0.100000 -0.742500
v 0.185961 0.100000 -0.332566
v 0.207784 0.100000 -0.310789
v 0.314543 0.100000 -0.412059
v 0.350435 0.100000 -0.548956
v 0.339581 0.100000 -0.625568
v 0.158179 0.100000 -0.808679
v 0.028125 0.100000 -0.830452
v -0.025582 0.100000 -0.827010
v -0.076177 0.100000 -0.817001
v -0.167257 0.100000 -0.778887
v -0.207162 0.100000 -0.751536
v -0.242903 0.100000 -0.719124
v -0.321791 0.100000 -0.594874
v -0.337441 0.100000 -0.545544
v -0.347129 0.100000 -0.492807
v -0.350454 0.100000 -0.436952
v -0.347433 0.100000 -0.383050
v -0.338544 0.100000 -0.333622
v -0.304194 0.100000 -0.248498
v -0.248785 0.100000 -0.181224
v -0.074615 0.100000 -0.100335
v -0.017843 0.100000 -0.092266
v 0.044174 0.100000 -0.089519
v 0.154072 0.100000 -0.100114
v 0.186301 0.100000 -0.107928
v 0.269518 0.100000 -0.141973
v 0.332564 0.100000 -0.188658
v 0.527409 0.100000 -0.236500
v 0.031198 0.100000 -0.363356
v 0.045038 0.100000 -0.385121
v 0.057056 0.100000 -0.408982
v 0.078870 0.100000 -0.488422
v 0.080466 0.100000 -0.516199
v 0.077360 0.100000 -0.551642
v 0.062762 0.100000 -0.592344
v 0.039474 0.100000 -0.617694
v 0.019527 0.100000 -0.627070
v -0.004370 0.100000 -0.630394
v -0.036262 0.100000 -0.623255
v -0.068708 0.100000 -0.601675
v -0.112418 0.100000 -0.545082
v -0.123972 0.100000 -0.521271
v -0.133436 0.100000 -0.495716
v -0.140513 0.100000 -0.468865
v -0.144935 0.100000 -0.441161
v -0.146467 0.100000 -0.412857
v -0.077366 0.100000 -0.299432
v 0.387117 -0.100000 -0.066957
v 0.315557 -0.100000 -0.021376
v 0.276067 -0.100000 -0.003395
v 0.234166 -0.100000 0.011331
v 0.189893 -0.100000 0.022788
v 0.143272 -0.100000 0.030970
v 0.094314 -0.100000 0.035878
v 0.042804 -0.100000 0.037520
v -0.033851 -0.100000 0.033983
v -0.105691 -0.100000 0.023427
v -0.172292 -0.100000 0.005975
v -0.337454 -0.100000 -0.086521
v -0.379669 -0.100000 -0.130127
v -0.414783 -0.100000 -0.179640
v -0.429211 -0.100000 -0.663502
v -0.399985 -0.100000 -0.720839
v -0.265563 -0.100000 -0.868802
v 0.031803 -0.100000 -0.956553
v 0.153659 -0.100000 -0.942956
v 0.209423 -0.100000 -0.926432
v 0.261232 -0.100000 -0.903839
v 0.308637 -0.100000 -0.875501
v 0.351177 -0.100000 -0.841761
v 0.474709 -0.100000 -0.605642
v 0.478560 -0.100000 -0.548018
v 0.452063 -0.100000 -0.408402
v 0.409399 -0.100000 -0.325435
v 0.317302 -0.100000 -0.227022
v 0.280722 -0.100000 -0.203472
v 0.201050 -0.100000 -0.174337
v 0.124965 -0.100000 -0.173113
v 0.037950 -0.100000 -0.248349
v 0.037965 -0.100000 -0.212814
v -0.011387 -0.100000 -0.188959
v -0.143353 -0.100000 -0.180187
v -0.215969 -0.100000 -0.223104
v -0.235503 -0.100000 -0.244106
v -0.266497 -0.100000 -0.294277
v -0.290841 -0.100000 -0.385980
v -0.292545 -0.100000 -0.420219
v -0.281771 -0.100000 -0.503846
v -0.269061 -0.100000 -0.543872
v -0.252118 -0.100000 -0.581973
v -0.231382 -0.100000 -0.617677
v -0.207261 -0.100000 -0.650508
v -0.180126 -0.100000 -0.679978
v -0.150319 -0.100000 -0.705567
v -0.118154 -0.100000 -0.726714
v 0.023274 -0.100000 -0.753436
v 0.130972 -0.100000 -0.742500
v 0.207784 -0.100000 -0.310789
v 0.347772 -0.100000 -0.509362
v 0.347659 -0.100000 -0.588359
v 0.339581 -0.100000 -0.625568
v 0.286532 -0.100000 -0.722524
v 0.158179 -0.100000 -0.808679
v 0.117542 -0.100000 -0.820557
v 0.074049 -0.100000 -0.827927
v 0.028125 -0.100000 -0.830452
v -0.025582 -0.100000 -0.827010
v -0.123498 -0.100000 -0.800831
v -0.242903 -0.100000 -0.719124
v -0.274154 -0.100000 -0.681991
v -0.300570 -0.100000 -0.640465
v -0.347129 -0.100000 -0.492807
v -0.347433 -0.100000 -0.383050
v -0.338544 -0.100000 -0.333622
v -0.279091 -0.100000 -0.212672
v -0.126152 -0.100000 -0.113496
v -0.017843 -0.100000 -0.092266
v 0.044174 -0.100000 -0.089519
v 0.154072 -0.100000 -0.100114
v 0.186301 -0.100000 -0.107928
v 0.216285 -0.100000 -0.117615
v 0.244024 -0.100000 -0.129016
v 0.313782 -0.100000 -0.171944
v 0.349123 -0.100000 -0.206331
v 0.527409 -0.100000 -0.236500
v -0.017146 -0.100000 -0.315104
v -0.000353 -0.100000 -0.327940
v 0.031198 -0.100000 -0.363356
v 0.057056 -0.100000 -0.408982
v 0.066904 -0.100000 -0.434470
v 0.074270 -0.100000 -0.461107
v 0.062762 -0.100000 -0.592344
v 0.039474 -0.100000 -0.617694
v 0.019527 -0.100000 -0.627070
v -0.004370 -0.100000 -0.630394
v -0.068708 -0.100000 -0.601675
v -0.084396 -0.100000 -0.585704
v -0.099104 -0.100000 -0.566704
v -0.112418 -0.100000 -0.545082
v -0.144935 -0.100000 -0.441161
v -0.146467 -0.100000 -0.412857
v -0.134859 -0.100000 -0.349157
v -0.087789 -0.100000 -0.301883
v 0.475290 -0.100000 -0.158389
v 0.448489 -0.100000 -0.124948
v 0.448489 0.100000 -0.124948
v 0.419093 -0.100000 -0.094441
v 0.387117 0.100000 -0.066957
v 0.352590 -0.100000 -0.042580
v 0.315557 0.100000 -0.021376
v 0.189893 0.100000 0.022788
v 0.094314 0.100000 0.035878
v -0.172292 0.100000 0.005975
v -0.233358 -0.100000 -0.018261
v -0.288544 -0.100000 -0.049150
v -0.414783 0.100000 -0.179640
v -0.442453 -0.100000 -0.234669
v -0.462418 -0.100000 -0.294809
v -0.462418 0.100000 -0.294809
v -0.474495 -0.100000 -0.359681
v -0.478541 -0.100000 -0.428903
v -0.475612 -0.100000 -0.485945
v -0.466644 -0.100000 -0.544814
v -0.451300 -0.100000 -0.604406
v -0.363216 -0.100000 -0.775100
v -0.318518 -0.100000 -0.824905
v -0.265563 0.100000 -0.868802
v -0.204124 -0.100000 -0.905313
v -0.204124 0.100000 -0.905313
v -0.134088 -0.100000 -0.932989
v -0.055409 -0.100000 -0.950482
v 0.094378 -0.100000 -0.953095
v 0.094378 0.100000 -0.953095
v 0.209423 0.100000 -0.926432
v 0.388384 -0.100000 -0.802978
v 0.388384 0.100000 -0.802978
v 0.419790 -0.100000 -0.759544
v 0.419790 0.100000 -0.759544
v 0.444934 -0.100000 -0.711875
v 0.444934 0.100000 -0.711875
v 0.463377 -0.100000 -0.660420
v 0.463377 0.100000 -0.660420
v 0.474709 0.100000 -0.605642
v 0.475429 -0.100000 -0.500204
v 0.475429 0.100000 -0.500204
v 0.466413 -0.100000 -0.453469
v 0.432897 -0.100000 -0.365547
v 0.432897 0.100000 -0.365547
v 0.409399 0.100000 -0.325435
v 0.382024 -0.100000 -0.288605
v 0.382024 0.100000 -0.288605
v 0.351194 -0.100000 -0.255607
v 0.241829 -0.100000 -0.185652
v 0.241829 0.100000 -0.185652
v 0.159788 -0.100000 -0.170453
v 0.124965 0.100000 -0.173113
v 0.094674 -0.100000 -0.181651
v 0.094674 0.100000 -0.181651
v 0.068747 -0.100000 -0.197253
v 0.037950 0.100000 -0.248349
v 0.070588 0.100000 -0.248601
v 0.057862 -0.100000 -0.236113
v 0.031150 0.100000 -0.214086
v 0.017257 -0.100000 -0.204616
v -0.040906 -0.100000 -0.177998
v -0.070948 -0.100000 -0.172220
v -0.115351 -0.100000 -0.173642
v -0.143353 0.100000 -0.180187
v -0.169660 -0.100000 -0.190816
v -0.169660 0.100000 -0.190816
v -0.193952 -0.100000 -0.205231
v -0.193952 0.100000 -0.205231
v -0.252392 -0.100000 -0.267926
v -0.266497 0.100000 -0.294277
v -0.277691 -0.100000 -0.322896
v -0.277691 0.100000 -0.322896
v -0.285849 -0.100000 -0.353541
v -0.285849 0.100000 -0.353541
v -0.292545 0.100000 -0.420219
v -0.289775 -0.100000 -0.462371
v -0.281771 0.100000 -0.503846
v -0.269061 0.100000 -0.543872
v -0.252118 0.100000 -0.581973
v -0.180126 0.100000 -0.679978
v -0.150319 0.100000 -0.705567
v -0.118154 0.100000 -0.726714
v -0.083940 -0.100000 -0.742780
v -0.083940 0.100000 -0.742780
v -0.048033 -0.100000 -0.753029
v -0.048033 0.100000 -0.753029
v -0.011720 -0.100000 -0.756560
v 0.006309 0.100000 -0.755753
v 0.055890 -0.100000 -0.744247
v 0.071389 0.100000 -0.737442
v 0.100432 -0.100000 -0.719642
v 0.100432 0.100000 -0.719642
v 0.126527 -0.100000 -0.696622
v 0.149392 -0.100000 -0.668811
v 0.149392 0.100000 -0.668811
v 0.185961 -0.100000 -0.332566
v 0.184858 -0.100000 -0.308302
v 0.185406 0.100000 -0.306923
v 0.241112 -0.100000 -0.330338
v 0.241112 0.100000 -0.330338
v 0.260098 -0.100000 -0.345557
v 0.260098 0.100000 -0.345557
v 0.279256 -0.100000 -0.364292
v 0.279256 0.100000 -0.364292
v 0.297686 -0.100000 -0.386476
v 0.297686 0.100000 -0.386476
v 0.314543 -0.100000 -0.412059
v 0.329027 -0.100000 -0.441030
v 0.329027 0.100000 -0.441030
v 0.340363 -0.100000 -0.473429
v 0.340363 0.100000 -0.473429
v 0.347772 0.100000 -0.509362
v 0.350435 -0.100000 -0.548956
v 0.347659 0.100000 -0.588359
v 0.326517 -0.100000 -0.660460
v 0.326517 0.100000 -0.660460
v 0.308749 -0.100000 -0.692850
v 0.308749 0.100000 -0.692850
v 0.286532 0.100000 -0.722524
v 0.260112 -0.100000 -0.749233
v 0.260112 0.100000 -0.749233
v 0.229739 -0.100000 -0.772698
v 0.229739 0.100000 -0.772698
v 0.195672 -0.100000 -0.792618
v 0.195672 0.100000 -0.792618
v 0.117542 0.100000 -0.820557
v 0.074049 0.100000 -0.827927
v -0.076177 -0.100000 -0.817001
v -0.123498 0.100000 -0.800831
v -0.167257 -0.100000 -0.778887
v -0.207162 -0.100000 -0.751536
v -0.274154 0.100000 -0.681991
v -0.300570 0.100000 -0.640465
v -0.321791 -0.100000 -0.594874
v -0.337441 -0.100000 -0.545544
v -0.350454 -0.100000 -0.436952
v -0.324058 -0.100000 -0.288785
v -0.324058 0.100000 -0.288785
v -0.304194 -0.100000 -0.248498
v -0.279091 0.100000 -0.212672
v -0.248785 -0.100000 -0.181224
v -0.213233 -0.100000 -0.154142
v -0.213233 0.100000 -0.154142
v -0.172366 -0.100000 -0.131507
v -0.172366 0.100000 -0.131507
v -0.126152 0.100000 -0.113496
v -0.074615 -0.100000 -0.100335
v 0.082909 -0.100000 -0.090746
v 0.082909 0.100000 -0.090746
v 0.119606 -0.100000 -0.094333
v 0.119606 0.100000 -0.094333
v 0.216285 0.100000 -0.117615
v 0.244024 0.100000 -0.129016
v 0.269518 -0.100000 -0.141973
v 0.292769 -0.100000 -0.156333
v 0.292769 0.100000 -0.156333
v 0.313782 0.100000 -0.171944
v 0.332564 -0.100000 -0.188658
v 0.349123 0.100000 -0.206331
v 0.372529 -0.100000 -0.236500
v 0.372529 0.100000 -0.236500
v -0.033941 0.100000 -0.305914
v -0.000353 0.100000 -0.327940
v 0.015924 -0.100000 -0.344151
v 0.015924 0.100000 -0.344151
v 0.045038 -0.100000 -0.385121
v 0.066904 0.100000 -0.434470
v 0.074270 0.100000 -0.461107
v 0.078870 -0.100000 -0.488422
v 0.080466 -0.100000 -0.516199
v 0.073670 -0.100000 -0.566964
v -0.036262 -0.100000 -0.623255
v -0.084396 0.100000 -0.585704
v -0.099104 0.100000 -0.566704
v -0.123972 -0.100000 -0.521271
v -0.133436 -0.100000 -0.495716
v -0.140513 -0.100000 -0.468865
v -0.143384 -0.100000 -0.378051
v -0.139727 0.100000 -0.362802
v -0.128937 0.100000 -0.337175
v -0.122116 -0.100000 -0.326884
v -0.114533 0.100000 -0.318269
v -0.106282 -0.100000 -0.311276
v -0.097387 0.100000 -0.305833
v -0.066530 -0.100000 -0.298617
vn -0.0000 -1.0000 -0.0000
vn -0.0000 1.0000 -0.0000
vn -0.8068 -0.0000 -0.5908
vn -0.7510 -0.0000 -0.6603
vn -0.6867 -0.0000 -0.7269
vn -0.6150 -0.0000 -0.7885
vn -0.5374 -0.0000 -0.8433
vn -0.4561 -0.0000 -0.8899
vn -0.3734 -0.0000 -0.9277
vn -0.2913 -0.0000 -0.9566
vn -0.2119 -0.0000 -0.9773
vn -0.1364 -0.0000 -0.9907
vn -0.0658 -0.0000 -0.9978
vn 0.0071 -0.0000 -1.0000
vn 0.0959 -0.0000 -0.9954
vn 0.1997 -0.0000 -0.9798
vn 0.1997 -0.0000 -0.9799
vn 0.3118 -0.0000 -0.9502
vn 0.4296 -0.0000 -0.9030
vn 0.5492 -0.0000 -0.8357
vn 0.6647 -0.0000 -0.7472
vn 0.7693 -0.0000 -0.6389
vn 0.8570 -0.0000 -0.5153
vn 0.9237 -0.0000 -0.3832
vn 0.9683 -0.0000 -0.2496
vn 0.9927 -0.0000 -0.1209
vn 1.0000 -0.0000 -0.0035
vn 0.9949 -0.0000 0.1011
vn 0.9797 -0.0000 0.2002
vn 0.9539 -0.0000 0.3002
vn 0.9153 -0.0000 0.4028
vn 0.8610 -0.0000 0.5085
vn 0.7879 -0.0000 0.6159
vn 0.6931 -0.0000 0.7209
vn 0.5763 -0.0000 0.8173
vn 0.4406 -0.0000 0.8977
vn 0.2932 -0.0000 0.9561
vn 0.1436 -0.0000 0.9896
vn 0.0071 -0.0000 1.0000
vn -0.1121 -0.0000 0.9937
vn -0.2268 -0.0000 0.9740
vn -0.2267 -0.0000 0.9740
vn -0.3426 -0.0000 0.9395
vn -0.4573 -0.0000 0.8893
vn -0.5685 -0.0000 0.8227
vn -0.6731 -0.0000 0.7396
vn -0.7678 -0.0000 0.6407
vn -0.8495 -0.0000 0.5275
vn -0.8495 -0.0000 0.5276
vn -0.9152 -0.0000 0.4030
vn -0.9627 -0.0000 0.2707
vn -0.9909 -0.0000 0.1350
vn -1.0000 -0.0000 0.0007
vn -0.9918 -0.0000 -0.1276
vn -0.9691 -0.0000 -0.2468
vn -0.9343 -0.0000 -0.3564
vn -0.8892 -0.0000 -0.4575
vn -0.8340 -0.0000 -0.5518
vn -0.7678 -0.0000 -0.6406
vn -0.6889 -0.0000 -0.7248
vn -0.5942 -0.0000 -0.8043
vn -0.4801 -0.0000 -0.8772
vn -0.3430 -0.0000 -0.9393
vn -0.1812 -0.0000 -0.9834
vn -0.1813 -0.0000 -0.9834
vn -0.0088 -0.0000 -1.0000
vn 0.1746 -0.0000 -0.9846
vn 0.3970 -0.0000 -0.9178
vn 0.4652 0.0036 -0.8852
vn 0.4458 0.0010 -0.8951
vn 0.4086 0.0081 -0.9127
vn -0.9849 -0.0038 -0.1732
vn -0.9993 -0.0304 -0.0210
vn -0.9994 -0.0340 0.0004
vn 0.6691 0.0075 0.7431
vn 0.7453 0.0262 0.6662
vn 0.6586 0.0051 0.7525
vn -0.5255 -0.0038 -0.8508
vn -0.3680 -0.0185 -0.9296
vn -0.4307 -0.0076 -0.9024
vn -0.4624 -0.0039 -0.8867
vn -0.4141 0.0009 -0.9102
vn -0.2653 -0.0059 -0.9642
vn -0.2694 -0.0000 -0.9630
vn -0.0809 0.0025 -0.9967
vn -0.0315 -0.0030 -0.9995
vn 0.1324 0.0029 -0.9912
vn 0.1520 -0.0000 -0.9884
vn 0.3020 -0.0000 -0.9533
vn 0.4437 -0.0000 -0.8962
vn 0.5718 -0.0000 -0.8204
vn 0.6829 -0.0000 -0.7305
vn 0.7757 -0.0000 -0.6311
vn 0.8504 -0.0000 -0.5262
vn 0.9081 -0.0000 -0.4188
vn 0.9503 -0.0000 -0.3112
vn 0.9788 -0.0000 -0.2050
vn 0.9949 -0.0000 -0.1010
vn 1.0000 -0.0000 0.0079
vn 0.9918 -0.0000 0.1278
vn 0.9691 -0.0000 0.2465
vn 0.9349 -0.0000 0.3550
vn 0.8905 -0.0000 0.4549
vn 0.8365 -0.0000 0.5479
vn 0.7719 -0.0000 0.6357
vn 0.6947 -0.0000 0.7193
vn 0.6016 -0.0000 0.7988
vn 0.4884 -0.0000 0.8726
vn 0.3509 -0.0000 0.9364
vn 0.1660 -0.0038 0.9861
vn 0.0052 0.0012 1.0000
vn -0.0673 -0.0057 0.9977
vn -0.1808 0.0036 0.9835
vn -0.2712 -0.0035 0.9625
vn -0.3788 0.0053 0.9255
vn -0.4439 -0.0012 0.8961
vn -0.5688 0.0196 0.8223
vn -0.4775 -0.0000 0.8787
vn -0.4574 0.0037 0.8893
vn 0.8307 -0.0176 -0.5565
vn 0.7825 -0.0029 -0.6227
vn 0.8375 -0.0198 -0.5461
vn 0.9795 0.0030 0.2014
vn 0.6862 0.0125 0.7273
vn 0.6453 -0.0000 0.7639
vn 0.0521 -0.0000 0.9986
vn -0.9845 -0.0000 -0.1752
vn -0.9950 0.0013 -0.0996
vn -0.6863 -0.0053 0.7273
vn -0.6517 0.0018 0.7585
vn 0.3160 -0.0034 0.9488
vn 0.3436 -0.0000 0.9391
vn 0.5672 -0.0000 0.8236
vn 0.6631 -0.0000 0.7485
vn 0.7352 -0.0000 0.6779
vn 0.8033 -0.0000 0.5955
vn 0.8663 -0.0000 0.4996
vn 0.9210 -0.0000 0.3895
vn 0.9638 -0.0000 0.2667
vn 0.9909 -0.0000 0.1348
vn 1.0000 -0.0000 -0.0016
vn 0.9899 -0.0000 -0.1416
vn 0.9594 -0.0000 -0.2821
vn 0.9090 -0.0000 -0.4169
vn 0.8407 -0.0000 -0.5415
vn 0.7575 -0.0000 -0.6528
vn 0.7109 -0.0000 -0.7032
vn 0.6114 -0.0000 -0.7913
vn 0.5592 -0.0000 -0.8290
vn 0.4501 -0.0000 -0.8930
vn 0.3378 -0.0000 -0.9412
vn 0.2242 -0.0000 -0.9745
vn 0.1112 -0.0000 -0.9938
vn -0.0045 -0.0000 -1.0000
vn -0.1293 -0.0000 -0.9916
vn -0.2593 -0.0000 -0.9658
vn -0.3867 -0.0000 -0.9222
vn -0.5080 -0.0000 -0.8614
vn -0.6200 -0.0000 -0.7846
vn -0.7201 -0.0000 -0.6939
vn -0.8062 -0.0000 -0.5916
vn -0.8771 -0.0000 -0.4804
vn -0.9318 -0.0000 -0.3629
vn -0.9703 -0.0000 -0.2420
vn -0.9927 -0.0000 -0.1203
vn -1.0000 -0.0000 -0.0017
vn -0.9932 -0.0000 0.1167
vn -0.9701 -0.0000 0.2428
vn -0.9267 -0.0000 0.3758
vn -0.8605 -0.0000 0.5095
vn -0.7718 -0.0000 0.6358
vn -0.6650 -0.0000 0.7469
vn -0.5467 -0.0000 0.8373
vn -0.4248 -0.0000 0.9053
vn -0.3058 -0.0000 0.9521
vn -0.1944 -0.0000 0.9809
vn -0.0926 -0.0000 0.9957
vn -0.0063 -0.0000 1.0000
vn 0.0645 -0.0000 0.9979
vn 0.1314 -0.0000 0.9913
vn 0.2007 -0.0000 0.9797
vn 0.2717 -0.0000 0.9624
vn 0.3440 -0.0000 0.9390
vn 0.4170 -0.0000 0.9089
vn 0.4897 -0.0000 0.8719
vn 0.5614 -0.0000 0.8275
vn 0.6312 -0.0000 0.7756
vn 0.6980 -0.0000 0.7161
vn 0.7607 -0.0000 0.6491
vn 0.4399 -0.0000 0.8980
vn 0.4399 -0.0000 0.8981
vn -0.8818 -0.0000 0.4717
vn 0.3575 0.0077 0.9339
vn 0.0808 -0.0090 0.9967
vn 0.4731 -0.0076 0.8810
vn 0.6321 0.0036 0.7748
vn 0.6579 -0.0000 0.7531
vn 0.7454 -0.0000 0.6666
vn 0.8144 -0.0000 0.5803
vn 0.8696 -0.0000 0.4938
vn 0.9140 -0.0000 0.4056
vn 0.9495 -0.0000 0.3139
vn 0.9763 -0.0000 0.2166
vn 0.9937 -0.0000 0.1119
vn 0.9999 -0.0000 -0.0150
vn 0.9994 -0.0036 -0.0353
vn 0.9774 0.0034 -0.2116
vn 0.9632 -0.0033 -0.2687
vn 0.8544 0.0040 -0.5196
vn 0.8395 -0.0000 -0.5434
vn 0.5920 -0.0000 -0.8059
vn 0.2848 -0.0000 -0.9586
vn -0.0410 -0.0000 -0.9992
vn -0.3927 -0.0000 -0.9197
vn -0.6370 -0.0000 -0.7708
vn -0.7534 -0.0000 -0.6576
vn -0.8223 -0.0000 -0.5690
vn -0.8767 -0.0000 -0.4810
vn -0.9198 -0.0000 -0.3924
vn -0.9535 -0.0000 -0.3014
vn -0.9784 -0.0000 -0.2065
vn -0.9944 -0.0000 -0.1060
vn -0.9993 0.0035 0.0374
vn -0.9999 -0.0000 0.0171
vn -0.9827 -0.0013 0.1852
vn -0.9644 0.0056 0.2642
vn -0.9198 -0.0037 0.3924
vn -0.8654 0.0037 0.5010
vn -0.7924 -0.0038 0.6101
vn -0.6987 0.0038 0.7154
vn -0.5844 -0.0039 0.8115
vn -0.4515 0.0039 0.8922
vn -0.3062 -0.0039 0.9520
vn -0.0830 0.0079 0.9965
vn 0.4837 -0.0000 -0.8752
vn -0.9809 -0.0000 -0.1947
vn 0.7601 0.0300 0.6491
vn 0.1864 -0.0000 0.9825
vn -0.6611 0.0348 0.7495
vn 0.7725 -0.0000 -0.6351
vn 0.9951 0.0213 0.0964
vn -0.9939 -0.0000 -0.1105
vt 0.139918 0.000000
vt 0.144033 0.000000
vt 0.148148 0.000000
vt 0.152263 0.000000
vt 0.135802 0.000000
vt 0.156379 0.000000
vt 0.131687 0.000000
vt 0.160494 0.000000
vt 0.127572 0.000000
vt 0.164609 0.000000
vt 0.168724 0.000000
vt 0.123457 0.000000
vt 0.650206 0.000000
vt 0.646091 0.000000
vt 0.172840 0.000000
vt 0.654321 0.000000
vt 0.641975 0.000000
vt 0.658436 0.000000
vt 0.119342 0.000000
vt 0.637860 0.000000
vt 0.662551 0.000000
vt 0.633745 0.000000
vt 0.176955 0.000000
vt 0.666667 0.000000
vt 0.629630 0.000000
vt 0.670782 0.000000
vt 0.115226 0.000000
vt 0.625514 0.000000
vt 0.181070 0.000000
vt 0.436214 0.000000
vt 0.448560 0.000000
vt 0.452675 0.000000
vt 0.432099 0.000000
vt 0.674897 0.000000
vt 0.456790 0.000000
vt 0.460905 0.000000
vt 0.427984 0.000000
vt 0.489712 0.000000
vt 0.493827 0.000000
vt 0.497942 0.000000
vt 0.485597 0.000000
vt 0.502058 0.000000
vt 0.621399 0.000000
vt 0.465021 0.000000
vt 0.423868 0.000000
vt 0.469136 0.000000
vt 0.617284 0.000000
vt 0.111111 0.000000
vt 0.679012 0.000000
vt 0.185185 0.000000
vt 0.473251 0.000000
vt 0.477366 0.000000
vt 0.419753 0.000000
vt 0.481481 0.000000
vt 0.613169 0.000000
vt 0.683128 0.000000
vt 0.415638 0.000000
vt 0.897119 0.000000
vt 0.893004 0.000000
vt 0.888889 0.000000
vt 0.880658 0.000000
vt 0.876543 0.000000
vt 0.868313 0.000000
vt 0.106996 0.000000
vt 0.609053 0.000000
vt 0.189300 0.000000
vt 0.411523 0.000000
vt 0.901235 0.000000
vt 0.687243 0.000000
vt 0.905350 0.000000
vt 0.604938 0.000000
vt 0.407407 0.000000
vt 0.913580 0.000000
vt 0.917695 0.000000
vt 0.193416 0.000000
vt 0.102881 0.000000
vt 0.921811 0.000000
vt 0.691358 0.000000
vt 0.600823 0.000000
vt 0.925926 0.000000
vt 0.403292 0.000000
vt 0.864198 0.000000
vt 0.930041 0.000000
vt 0.855967 0.000000
vt 0.860082 0.000000
vt 0.596708 0.000000
vt 0.197531 0.000000
vt 0.695473 0.000000
vt 0.934156 0.000000
vt 0.098765 0.000000
vt 0.399177 0.000000
vt 0.938272 0.000000
vt 0.847737 0.000000
vt 0.851852 0.000000
vt 0.592593 0.000000
vt 0.395062 0.000000
vt 0.201646 0.000000
vt 0.942387 0.000000
vt 0.699588 0.000000
vt 0.843621 0.000000
vt 0.094650 0.000000
vt 0.588477 0.000000
vt 0.946502 0.000000
vt 0.390947 0.000000
vt 0.839506 0.000000
vt 0.205761 0.000000
vt 0.950617 0.000000
vt 0.584362 0.000000
vt 0.703704 0.000000
vt 0.835391 0.000000
vt 0.090535 0.000000
vt 0.386831 0.000000
vt 0.580247 0.000000
vt 0.831276 0.000000
vt 0.209877 0.000000
vt 0.954733 0.000000
vt 0.958848 0.000000
vt 0.576132 0.000000
vt 0.382716 0.000000
vt 0.827160 0.000000
vt 0.707819 0.000000
vt 0.213992 0.000000
vt 0.572016 0.000000
vt 0.823045 0.000000
vt 0.962963 0.000000
vt 0.967078 0.000000
vt 0.086420 0.000000
vt 0.378601 0.000000
vt 0.567901 0.000000
vt 0.818930 0.000000
vt 0.711934 0.000000
vt 0.506173 0.000000
vt 0.563786 0.000000
vt 0.814815 0.000000
vt 0.975309 0.000000
vt 0.979424 0.000000
vt 0.218107 0.000000
vt 0.374486 0.000000
vt 0.983539 0.000000
vt 0.555556 0.000000
vt 0.559671 0.000000
vt 0.806584 0.000000
vt 0.551440 0.000000
vt 0.991770 0.000000
vt 0.995885 0.000000
vt 1.000000 0.000000
vt 0.082305 0.000000
vt 0.370370 0.000000
vt 0.716049 0.000000
vt 0.288066 0.000000
vt 0.222222 0.000000
vt 0.366255 0.000000
vt 0.308642 0.000000
vt 0.283951 0.000000
vt 0.296296 0.000000
vt 0.226337 0.000000
vt 0.275720 0.000000
vt 0.720165 0.000000
vt 0.362140 0.000000
vt 0.794239 0.000000
vt 0.798354 0.000000
vt 0.802469 0.000000
vt 0.000000 0.000000
vt 0.279835 0.000000
vt 0.300412 0.000000
vt 0.304527 0.000000
vt 0.078189 0.000000
vt 0.230453 0.000000
vt 0.358025 0.000000
vt 0.271605 0.000000
vt 0.312757 0.000000
vt 0.724280 0.000000
vt 0.790123 0.000000
vt 0.353909 0.000000
vt 0.267490 0.000000
vt 0.234568 0.000000
vt 0.263374 0.000000
vt 0.349794 0.000000
vt 0.320988 0.000000
vt 0.325103 0.000000
vt 0.786008 0.000000
vt 0.259259 0.000000
vt 0.238683 0.000000
vt 0.728395 0.000000
vt 0.345679 0.000000
vt 0.329218 0.000000
vt 0.074074 0.000000
vt 0.251029 0.000000
vt 0.255144 0.000000
vt 0.333333 0.000000
vt 0.337449 0.000000
vt 0.242798 0.000000
vt 0.781893 0.000000
vt 0.004115 0.000000
vt 0.777778 0.000000
vt 0.732510 0.000000
vt 0.773663 0.000000
vt 0.736625 0.000000
vt 0.069959 0.000000
vt 0.769547 0.000000
vt 0.008230 0.000000
vt 0.765432 0.000000
vt 0.740741 0.000000
vt 0.761317 0.000000
vt 0.744856 0.000000
vt 0.757202 0.000000
vt 0.012346 0.000000
vt 0.753086 0.000000
vt 0.748971 0.000000
vt 0.065844 0.000000
vt 0.016461 0.000000
vt 0.061728 0.000000
vt 0.020576 0.000000
vt 0.024691 0.000000
vt 0.057613 0.000000
vt 0.028807 0.000000
vt 0.053498 0.000000
vt 0.032922 0.000000
vt 0.037037 0.000000
vt 0.049383 0.000000
vt 0.041152 0.000000
vt 0.045267 0.000000
vt 0.444444 0.000000
vt 0.440329 0.000000
vt 0.971193 0.000000
vt 0.547325 0.000000
vt 0.810700 0.000000
vt 0.987654 0.000000
vt 0.292181 0.000000
vt 0.316872 0.000000
vt 0.005102 1.000000
vt 0.000000 1.000000
vt 0.005102 0.000000
vt 0.010204 1.000000
vt 0.010204 0.000000
vt 0.015306 1.000000
vt 0.015306 0.000000
vt 0.020408 1.000000
vt 0.020408 0.000000
vt 0.025510 1.000000
vt 0.025510 0.000000
vt 0.030612 1.000000
vt 0.030612 0.000000
vt 0.035714 1.000000
vt 0.035714 0.000000
vt 0.040816 1.000000
vt 0.040816 0.000000
vt 0.045918 1.000000
vt 0.045918 0.000000
vt 0.051020 1.000000
vt 0.051020 0.000000
vt 0.056122 1.000000
vt 0.056122 0.000000
vt 0.061224 1.000000
vt 0.061224 0.000000
vt 0.066327 1.000000
vt 0.066327 0.000000
vt 0.071429 1.000000
vt 0.071429 0.000000
vt 0.076531 1.000000
vt 0.076531 0.000000
vt 0.081633 1.000000
vt 0.081633 0.000000
vt 0.086735 1.000000
vt 0.086735 0.000000
vt 0.091837 1.000000
vt 0.091837 0.000000
vt 0.096939 1.000000
vt 0.096939 0.000000
vt 0.102041 1.000000
vt 0.102041 0.000000
vt 0.107143 1.000000
vt 0.107143 0.000000
vt 0.112245 1.000000
vt 0.112245 0.000000
vt 0.117347 1.000000
vt 0.117347 0.000000
vt 0.122449 1.000000
vt 0.122449 0.000000
vt 0.127551 1.000000
vt 0.127551 0.000000
vt 0.132653 1.000000
vt 0.132653 0.000000
vt 0.137755 1.000000
vt 0.137755 0.000000
vt 0.142857 1.000000
vt 0.142857 0.000000
vt 0.147959 1.000000
vt 0.147959 0.000000
vt 0.153061 1.000000
vt 0.153061 0.000000
vt 0.158163 1.000000
vt 0.158163 0.000000
vt 0.163265 1.000000
vt 0.163265 0.000000
vt 0.168367 1.000000
vt 0.168367 0.000000
vt 0.173469 1.000000
vt 0.173469 0.000000
vt 0.178571 1.000000
vt 0.178571 0.000000
vt 0.183673 1.000000
vt 0.183673 0.000000
vt 0.188776 1.000000
vt 0.188776 0.000000
vt 0.193878 1.000000
vt 0.193878 0.000000
vt 0.198980 1.000000
vt 0.198980 0.000000
vt 0.204082 1.000000
vt 0.204082 0.000000
vt 0.209184 1.000000
vt 0.209184 0.000000
vt 0.214286 1.000000
vt 0.214286 0.000000
vt 0.219388 1.000000
vt 0.219388 0.000000
vt 0.224490 1.000000
vt 0.224490 0.000000
vt 0.229592 1.000000
vt 0.229592 0.000000
vt 0.234694 1.000000
vt 0.234694 0.000000
vt 0.239796 1.000000
vt 0.239796 0.000000
vt 0.244898 1.000000
vt 0.244898 0.000000
vt 0.250000 1.000000
vt 0.250000 0.000000
vt 0.255102 1.000000
vt 0.255102 0.000000
vt 0.260204 1.000000
vt 0.260204 0.000000
vt 0.265306 1.000000
vt 0.265306 0.000000
vt 0.270408 1.000000
vt 0.270408 0.000000
vt 0.275510 1.000000
vt 0.275510 0.000000
vt 0.280612 1.000000
vt 0.280612 0.000000
vt 0.285714 1.000000
vt 0.285714 0.000000
vt 0.290816 1.000000
vt 0.290816 0.000000
vt 0.295918 1.000000
vt 0.295918 0.000000
vt 0.301020 1.000000
vt 0.306122 0.000000
vt 0.311224 1.000000
vt 0.306122 1.000000
vt 0.311224 0.000000
vt 0.316327 1.000000
vt 0.326531 0.000000
vt 0.331633 1.000000
vt 0.326531 1.000000
vt 0.336735 1.000000
vt 0.341837 0.000000
vt 0.341837 1.000000
vt 0.346939 0.000000
vt 0.362245 1.000000
vt 0.367347 0.000000
vt 0.367347 1.000000
vt 0.382653 1.000000
vt 0.377551 0.000000
vt 0.382653 0.000000
vt 0.387755 1.000000
vt 0.397959 1.000000
vt 0.392857 0.000000
vt 0.397959 0.000000
vt 0.403061 1.000000
vt 0.413265 1.000000
vt 0.408163 0.000000
vt 0.413265 0.000000
vt 0.418367 1.000000
vt 0.423469 1.000000
vt 0.428571 0.000000
vt 0.428571 1.000000
vt 0.433673 1.000000
vt 0.433673 0.000000
vt 0.438776 1.000000
vt 0.438776 0.000000
vt 0.443878 1.000000
vt 0.443878 0.000000
vt 0.448980 1.000000
vt 0.448980 0.000000
vt 0.454082 1.000000
vt 0.454082 0.000000
vt 0.459184 1.000000
vt 0.459184 0.000000
vt 0.464286 1.000000
vt 0.464286 0.000000
vt 0.469388 1.000000
vt 0.469388 0.000000
vt 0.474490 1.000000
vt 0.474490 0.000000
vt 0.479592 1.000000
vt 0.479592 0.000000
vt 0.484694 1.000000
vt 0.484694 0.000000
vt 0.489796 1.000000
vt 0.489796 0.000000
vt 0.494898 1.000000
vt 0.494898 0.000000
vt 0.500000 1.000000
vt 0.500000 0.000000
vt 0.505102 1.000000
vt 0.505102 0.000000
vt 0.510204 1.000000
vt 0.510204 0.000000
vt 0.515306 1.000000
vt 0.515306 0.000000
vt 0.520408 1.000000
vt 0.520408 0.000000
vt 0.525510 1.000000
vt 0.525510 0.000000
vt 0.530612 1.000000
vt 0.530612 0.000000
vt 0.535714 1.000000
vt 0.535714 0.000000
vt 0.540816 1.000000
vt 0.545918 0.000000
vt 0.545918 1.000000
vt 0.551020 1.000000
vt 0.551020 0.000000
vt 0.556122 1.000000
vt 0.556122 0.000000
vt 0.561224 1.000000
vt 0.566327 1.000000
vt 0.561224 0.000000
vt 0.566327 0.000000
vt 0.571429 1.000000
vt 0.576531 0.000000
vt 0.576531 1.000000
vt 0.586735 0.000000
vt 0.591837 1.000000
vt 0.586735 1.000000
vt 0.596939 1.000000
vt 0.591837 0.000000
vt 0.607143 1.000000
vt 0.612245 0.000000
vt 0.612245 1.000000
vt 0.617347 1.000000
vt 0.617347 0.000000
vt 0.622449 1.000000
vt 0.627551 0.000000
vt 0.627551 1.000000
vt 0.688776 1.000000
vt 0.693878 0.000000
vt 0.693878 1.000000
vt 0.698980 0.000000
vt 0.704082 1.000000
vt 0.698980 1.000000
vt 0.704082 0.000000
vt 0.709184 1.000000
vt 0.709184 0.000000
vt 0.714286 1.000000
vt 0.714286 0.000000
vt 0.719388 1.000000
vt 0.719388 0.000000
vt 0.724490 1.000000
vt 0.724490 0.000000
vt 0.729592 1.000000
vt 0.729592 0.000000
vt 0.734694 1.000000
vt 0.734694 0.000000
vt 0.739796 1.000000
vt 0.739796 0.000000
vt 0.744898 1.000000
vt 0.744898 0.000000
vt 0.750000 1.000000
vt 0.750000 0.000000
vt 0.755102 1.000000
vt 0.755102 0.000000
vt 0.760204 1.000000
vt 0.760204 0.000000
vt 0.765306 1.000000
vt 0.765306 0.000000
vt 0.770408 1.000000
vt 0.770408 0.000000
vt 0.775510 1.000000
vt 0.775510 0.000000
vt 0.780612 1.000000
vt 0.780612 0.000000
vt 0.785714 1.000000
vt 0.785714 0.000000
vt 0.790816 1.000000
vt 0.790816 0.000000
vt 0.795918 1.000000
vt 0.795918 0.000000
vt 0.801020 1.000000
vt 0.801020 0.000000
vt 0.806122 1.000000
vt 0.806122 0.000000
vt 0.811224 1.000000
vt 0.811224 0.000000
vt 0.816327 1.000000
vt 0.816327 0.000000
vt 0.821429 1.000000
vt 0.821429 0.000000
vt 0.826531 1.000000
vt 0.826531 0.000000
vt 0.831633 1.000000
vt 0.831633 0.000000
vt 0.836735 1.000000
vt 0.836735 0.000000
vt 0.841837 1.000000
vt 0.841837 0.000000
vt 0.846939 1.000000
vt 0.846939 0.000000
vt 0.852041 1.000000
vt 0.852041 0.000000
vt 0.857143 1.000000
vt 0.857143 0.000000
vt 0.862245 1.000000
vt 0.862245 0.000000
vt 0.867347 1.000000
vt 0.867347 0.000000
vt 0.872449 1.000000
vt 0.872449 0.000000
vt 0.877551 1.000000
vt 0.877551 0.000000
vt 0.882653 1.000000
vt 0.882653 0.000000
vt 0.887755 1.000000
vt 0.887755 0.000000
vt 0.892857 1.000000
vt 0.892857 0.000000
vt 0.897959 1.000000
vt 0.897959 0.000000
vt 0.903061 1.000000
vt 0.903061 0.000000
vt 0.908163 1.000000
vt 0.908163 0.000000
vt 0.913265 1.000000
vt 0.913265 0.000000
vt 0.918367 1.000000
vt 0.918367 0.000000
vt 0.923469 1.000000
vt 0.923469 0.000000
vt 0.928571 1.000000
vt 0.928571 0.000000
vt 0.933673 1.000000
vt 0.933673 0.000000
vt 0.938776 1.000000
vt 0.938776 0.000000
vt 0.943878 1.000000
vt 0.943878 0.000000
vt 0.948980 1.000000
vt 0.948980 0.000000
vt 0.954082 1.000000
vt 0.954082 0.000000
vt 0.959184 1.000000
vt 0.959184 0.000000
vt 0.964286 1.000000
vt 0.964286 0.000000
vt 0.969388 1.000000
vt 0.969388 0.000000
vt 0.974490 1.000000
vt 0.974490 0.000000
vt 0.979592 1.000000
vt 0.979592 0.000000
vt 0.984694 1.000000
vt 0.984694 0.000000
vt 0.989796 1.000000
vt 0.989796 0.000000
vt 0.994898 1.000000
vt 0.994898 0.000000
vt 1.000000 1.000000
vt 0.020833 1.000000
vt 0.020833 0.000000
vt 0.041667 0.000000
vt 0.062500 1.000000
vt 0.041667 1.000000
vt 0.062500 0.000000
vt 0.083333 1.000000
vt 0.083333 0.000000
vt 0.104167 1.000000
vt 0.104167 0.000000
vt 0.125000 1.000000
vt 0.125000 0.000000
vt 0.145833 1.000000
vt 0.145833 0.000000
vt 0.166667 1.000000
vt 0.166667 0.000000
vt 0.187500 1.000000
vt 0.187500 0.000000
vt 0.208333 1.000000
vt 0.208333 0.000000
vt 0.229167 1.000000
vt 0.270833 1.000000
vt 0.291667 0.000000
vt 0.312500 1.000000
vt 0.291667 1.000000
vt 0.354167 0.000000
vt 0.375000 1.000000
vt 0.354167 1.000000
vt 0.416667 0.000000
vt 0.437500 1.000000
vt 0.416667 1.000000
vt 0.458333 0.000000
vt 0.479167 1.000000
vt 0.458333 1.000000
vt 0.479167 0.000000
vt 0.541667 0.000000
vt 0.562500 1.000000
vt 0.541667 1.000000
vt 0.562500 0.000000
vt 0.583333 1.000000
vt 0.583333 0.000000
vt 0.604167 1.000000
vt 0.604167 0.000000
vt 0.625000 1.000000
vt 0.625000 0.000000
vt 0.645833 1.000000
vt 0.645833 0.000000
vt 0.666667 1.000000
vt 0.687500 1.000000
vt 0.687500 0.000000
vt 0.708333 1.000000
vt 0.708333 0.000000
vt 0.729167 1.000000
vt 0.729167 0.000000
vt 0.770833 1.000000
vt 0.791667 1.000000
vt 0.770833 0.000000
vt 0.791667 0.000000
vt 0.812500 1.000000
vt 0.854167 1.000000
vt 0.833333 0.000000
vt 0.854167 0.000000
vt 0.875000 1.000000
vt 0.875000 0.000000
vt 0.895833 1.000000
vt 0.937500 1.000000
vt 0.916667 0.000000
vt 0.937500 0.000000
vt 0.958333 1.000000
vt 0.979167 1.000000
vt 0.958333 0.000000
vt 0.979167 0.000000
vt 0.301020 0.000000
vt 0.316327 0.000000
vt 0.331633 0.000000
vt 0.336735 0.000000
vt 0.346939 1.000000
vt 0.362245 0.000000
vt 0.403061 0.000000
vt 0.423469 0.000000
vt 0.540816 0.000000
vt 0.571429 0.000000
vt 0.596939 0.000000
vt 0.607143 0.000000
vt 0.622449 0.000000
vt 0.688776 0.000000
vt 0.229167 0.000000
vt 0.270833 0.000000
vt 0.312500 0.000000
vt 0.375000 0.000000
vt 0.437500 0.000000
s 0
f 25/1/1 26/2/1 226/3/1
f 25/1/1 226/3/1 27/4/1
f 24/5/1 25/1/1 27/4/1
f 24/5/1 27/4/1 227/6/1
f 222/7/1 24/5/1 227/6/1
f 222/7/1 227/6/1 28/8/1
f 220/9/1 222/7/1 28/8/1
f 220/9/1 28/8/1 29/10/1
f 220/9/1 29/10/1 30/11/1
f 23/12/1 220/9/1 30/11/1
f 23/12/1 30/11/1 60/13/1
f 60/13/1 30/11/1 324/14/1
f 324/14/1 30/11/1 229/15/1
f 23/12/1 60/13/1 61/16/1
f 323/17/1 324/14/1 229/15/1
f 23/12/1 61/16/1 62/18/1
f 22/19/1 23/12/1 62/18/1
f 59/20/1 323/17/1 229/15/1
f 22/19/1 62/18/1 326/21/1
f 322/22/1 59/20/1 229/15/1
f 322/22/1 229/15/1 231/23/1
f 22/19/1 326/21/1 63/24/1
f 320/25/1 322/22/1 231/23/1
f 22/19/1 63/24/1 64/26/1
f 21/27/1 22/19/1 64/26/1
f 318/28/1 320/25/1 231/23/1
f 318/28/1 231/23/1 233/29/1
f 283/30/1 285/31/1 51/32/1
f 281/33/1 283/30/1 51/32/1
f 21/27/1 64/26/1 65/34/1
f 281/33/1 51/35/1 287/36/1
f 279/37/1 281/33/1 287/36/1
f 52/38/1 53/39/1 318/40/1
f 52/38/1 318/40/1 292/41/1
f 292/41/1 318/40/1 54/42/1
f 316/43/1 318/40/1 233/29/1
f 279/37/1 287/36/1 289/44/1
f 278/45/1 279/37/1 289/46/1
f 315/47/1 316/43/1 233/29/1
f 20/48/1 21/27/1 65/34/1
f 20/48/1 65/34/1 329/49/1
f 315/47/1 233/29/1 235/50/1
f 278/45/1 289/51/1 52/52/1
f 277/53/1 278/45/1 52/52/1
f 277/53/1 52/52/1 292/54/1
f 313/55/1 315/47/1 235/50/1
f 20/48/1 329/49/1 330/56/1
f 50/57/1 277/53/1 292/41/1
f 50/57/1 292/41/1 90/58/1
f 90/59/1 292/41/1 89/60/1
f 89/61/1 292/41/1 88/62/1
f 88/63/1 292/41/1 54/42/1
f 19/64/1 20/48/1 330/56/1
f 58/65/1 313/55/1 235/50/1
f 58/65/1 235/50/1 236/66/1
f 49/67/1 50/57/1 91/68/1
f 91/68/2 50/57/2 90/58/2
f 19/64/1 330/56/1 66/69/1
f 49/67/1 91/68/1 92/70/1
f 311/71/1 58/65/1 236/66/1
f 276/72/1 49/67/1 92/73/1
f 276/72/1 92/73/1 93/74/1
f 311/71/1 236/66/1 31/75/1
f 18/76/1 19/64/1 66/69/1
f 276/72/1 93/74/1 370/77/1
f 18/76/1 66/69/1 67/78/1
f 57/79/1 311/71/1 31/75/1
f 276/72/1 370/77/1 371/80/1
f 275/81/1 276/72/1 371/80/1
f 87/82/1 88/63/1 54/42/1
f 275/81/1 371/80/1 94/83/1
f 86/84/1 87/85/1 54/42/1
f 309/86/1 57/79/1 31/75/1
f 309/86/1 31/75/1 238/87/1
f 18/76/1 67/78/1 68/88/1
f 275/81/1 94/83/1 95/89/1
f 17/90/1 18/76/1 68/88/1
f 274/91/1 275/81/1 95/89/1
f 274/91/1 95/89/1 96/92/1
f 85/93/1 86/94/1 54/42/1
f 308/95/1 309/86/1 238/87/1
f 48/96/1 274/91/1 96/92/1
f 308/95/1 238/87/1 32/97/1
f 48/96/1 96/92/1 97/98/1
f 17/90/1 68/88/1 69/99/1
f 365/100/1 85/93/1 54/42/1
f 16/101/1 17/90/1 69/99/1
f 306/102/1 308/95/1 32/97/1
f 48/96/1 97/98/1 98/103/1
f 272/104/1 48/96/1 98/103/1
f 364/105/1 365/100/1 54/42/1
f 306/102/1 32/97/1 33/106/1
f 272/104/1 98/103/1 99/107/1
f 56/108/1 306/102/1 33/106/1
f 16/101/1 69/99/1 70/109/1
f 84/110/1 364/105/1 54/42/1
f 15/111/1 16/101/1 70/109/1
f 47/112/1 272/104/1 99/107/1
f 303/113/1 56/108/1 33/106/1
f 83/114/1 84/110/1 54/42/1
f 303/113/1 33/106/1 241/115/1
f 47/112/1 99/116/1 376/117/1
f 301/118/1 303/113/1 241/115/1
f 271/119/1 47/112/1 376/117/1
f 82/120/1 83/114/1 54/42/1
f 15/111/1 70/109/1 71/121/1
f 301/118/1 241/115/1 242/122/1
f 299/123/1 301/118/1 242/122/1
f 362/124/1 82/120/1 54/42/1
f 271/119/1 376/125/1 377/126/1
f 212/127/1 15/111/1 71/121/1
f 269/128/1 271/119/1 377/126/1
f 297/129/1 299/123/1 242/122/1
f 360/130/1 362/124/1 54/42/1
f 212/127/1 71/121/1 335/131/1
f 360/130/1 54/42/1 295/132/1
f 55/133/1 297/129/1 242/122/1
f 359/134/1 360/130/1 295/132/1
f 269/128/1 377/135/1 379/136/1
f 55/133/1 242/122/1 244/137/1
f 267/138/1 269/128/1 379/136/1
f 267/138/1 379/136/1 381/139/1
f 295/140/1 55/141/1 244/137/1
f 359/142/1 295/143/1 244/137/1
f 267/138/1 381/144/1 100/145/1
f 100/146/1 359/142/1 244/137/1
f 267/138/1 100/146/1 244/137/1
f 14/147/1 212/127/1 335/131/1
f 46/148/1 267/138/1 244/137/1
f 14/147/1 335/131/1 72/149/1
f 46/148/1 244/137/1 253/150/1
f 253/150/1 244/137/1 34/151/1
f 45/152/1 46/148/1 253/150/1
f 45/152/1 253/150/1 256/153/1
f 253/154/1 34/151/1 254/155/1
f 254/155/1 34/151/1 35/156/1
f 256/157/1 254/155/1 35/156/1
f 14/147/1 72/149/1 337/158/1
f 44/159/1 45/152/1 256/153/1
f 356/160/1 358/161/1 81/162/1
f 356/160/1 81/162/1 1/163/1
f 253/164/1 254/165/1 256/166/1
f 209/167/1 14/147/1 337/158/1
f 256/157/1 35/156/1 36/168/1
f 265/169/1 44/159/1 256/153/1
f 39/170/1 256/157/1 36/168/1
f 265/169/1 256/153/1 40/171/1
f 209/167/1 337/158/1 73/172/1
f 80/173/1 356/160/1 1/163/1
f 263/174/1 265/169/1 40/171/1
f 39/175/1 36/168/1 247/176/1
f 251/177/1 39/175/1 247/176/1
f 261/178/1 263/174/1 40/179/1
f 261/178/1 40/179/1 41/180/1
f 354/181/1 80/173/1 1/163/1
f 251/182/1 247/176/1 37/183/1
f 209/167/1 73/172/1 340/184/1
f 43/185/1 261/178/1 41/186/1
f 13/187/1 209/167/1 340/184/1
f 249/188/1 251/189/1 37/183/1
f 43/185/1 41/190/1 42/191/1
f 249/188/1 37/183/1 38/192/1
f 353/193/1 354/181/1 1/163/1
f 353/193/1 1/163/1 199/194/1
f 79/195/1 353/193/1 199/194/1
f 13/187/1 340/184/1 342/196/1
f 350/197/1 79/195/1 199/194/1
f 13/187/1 342/196/1 343/198/1
f 12/199/1 13/187/1 343/198/1
f 349/200/1 350/197/1 199/194/1
f 349/200/1 199/194/1 2/201/1
f 78/202/1 349/200/1 2/201/1
f 12/199/1 343/198/1 74/203/1
f 77/204/1 78/202/1 2/201/1
f 12/199/1 74/203/1 75/205/1
f 348/206/1 77/204/1 2/201/1
f 348/206/1 2/201/1 201/207/1
f 346/208/1 348/206/1 201/207/1
f 12/199/1 75/205/1 76/209/1
f 76/209/1 346/208/1 201/207/1
f 12/199/1 76/209/1 201/207/1
f 11/210/1 12/199/1 201/207/1
f 11/210/1 201/207/1 3/211/1
f 10/212/1 11/210/1 3/211/1
f 10/212/1 3/211/1 203/213/1
f 10/212/1 203/213/1 4/214/1
f 206/215/1 10/212/1 4/214/1
f 206/215/1 4/214/1 5/216/1
f 9/217/1 206/215/1 5/216/1
f 9/217/1 5/216/1 204/218/1
f 9/217/1 204/218/1 6/219/1
f 8/220/1 9/217/1 6/219/1
f 8/220/1 6/219/1 205/221/1
f 7/222/1 8/220/1 205/221/1
f 224/1/2 225/3/2 118/2/2
f 224/1/2 119/4/2 225/3/2
f 223/5/2 119/4/2 224/1/2
f 223/5/2 120/6/2 119/4/2
f 221/7/2 120/6/2 223/5/2
f 221/7/2 121/8/2 120/6/2
f 117/9/2 121/8/2 221/7/2
f 117/9/2 122/10/2 121/8/2
f 117/9/2 123/11/2 122/10/2
f 219/12/2 123/11/2 117/9/2
f 219/12/2 159/13/2 123/11/2
f 159/13/2 158/14/2 123/11/2
f 158/14/2 228/15/2 123/11/2
f 219/12/2 160/16/2 159/13/2
f 157/17/2 228/15/2 158/14/2
f 219/12/2 325/18/2 160/16/2
f 218/19/2 325/18/2 219/12/2
f 156/20/2 228/15/2 157/17/2
f 218/19/2 161/21/2 325/18/2
f 321/22/2 228/15/2 156/20/2
f 321/22/2 230/23/2 228/15/2
f 218/19/2 327/24/2 161/21/2
f 319/25/2 230/23/2 321/22/2
f 218/19/2 328/26/2 327/24/2
f 116/27/2 328/26/2 218/19/2
f 317/28/2 230/23/2 319/25/2
f 317/28/2 232/29/2 230/23/2
f 282/30/2 149/223/2 284/224/2
f 280/33/2 149/32/2 282/30/2
f 116/27/2 162/34/2 328/26/2
f 280/33/2 286/35/2 149/32/2
f 148/37/2 286/36/2 280/33/2
f 290/38/2 317/40/2 150/39/2
f 290/38/2 291/41/2 317/40/2
f 291/41/2 293/42/2 317/40/2
f 155/43/2 232/29/2 317/40/2
f 148/37/2 288/44/2 286/36/2
f 147/45/2 288/46/2 148/37/2
f 314/47/2 232/29/2 155/43/2
f 115/48/2 162/34/2 116/27/2
f 115/48/2 163/49/2 162/34/2
f 314/47/2 234/50/2 232/29/2
f 147/45/2 290/52/2 288/51/2
f 146/53/2 290/52/2 147/45/2
f 146/53/2 291/54/2 290/52/2
f 312/55/2 234/50/2 314/47/2
f 115/48/2 164/56/2 163/49/2
f 145/57/2 291/41/2 146/53/2
f 145/57/2 187/58/2 291/41/2
f 187/59/2 186/60/2 291/41/2
f 186/61/2 185/62/2 291/41/2
f 185/63/2 293/42/2 291/41/2
f 217/64/2 164/56/2 115/48/2
f 154/65/2 234/50/2 312/55/2
f 154/65/2 124/66/2 234/50/2
f 144/67/2 188/68/2 145/57/2
f 188/68/1 187/58/1 145/57/1
f 217/64/2 331/69/2 164/56/2
f 144/67/2 369/70/2 188/68/2
f 153/71/2 124/66/2 154/65/2
f 143/72/2 369/73/2 144/67/2
f 143/72/2 189/74/2 369/73/2
f 153/71/2 125/75/2 124/66/2
f 216/76/2 331/69/2 217/64/2
f 143/72/2 190/77/2 189/74/2
f 216/76/2 332/78/2 331/69/2
f 310/79/2 125/75/2 153/71/2
f 143/72/2 191/80/2 190/77/2
f 142/81/2 191/80/2 143/72/2
f 368/82/2 293/42/2 185/63/2
f 142/81/2 192/83/2 191/80/2
f 367/84/2 293/42/2 368/85/2
f 152/86/2 125/75/2 310/79/2
f 152/86/2 237/87/2 125/75/2
f 216/76/2 165/88/2 332/78/2
f 142/81/2 372/89/2 192/83/2
f 215/90/2 165/88/2 216/76/2
f 141/91/2 372/89/2 142/81/2
f 141/91/2 373/92/2 372/89/2
f 366/93/2 293/42/2 367/94/2
f 307/95/2 237/87/2 152/86/2
f 273/96/2 373/92/2 141/91/2
f 307/95/2 239/97/2 237/87/2
f 273/96/2 374/98/2 373/92/2
f 215/90/2 333/99/2 165/88/2
f 184/100/2 293/42/2 366/93/2
f 214/101/2 333/99/2 215/90/2
f 305/102/2 239/97/2 307/95/2
f 273/96/2 193/103/2 374/98/2
f 140/104/2 193/103/2 273/96/2
f 183/105/2 293/42/2 184/100/2
f 305/102/2 126/106/2 239/97/2
f 140/104/2 194/107/2 193/103/2
f 304/108/2 126/106/2 305/102/2
f 214/101/2 166/109/2 333/99/2
f 182/110/2 293/42/2 183/105/2
f 213/111/2 166/109/2 214/101/2
f 139/112/2 194/107/2 140/104/2
f 139/112/2 375/116/2 194/107/2
f 302/113/2 126/106/2 304/108/2
f 363/114/2 293/42/2 182/110/2
f 302/113/2 240/115/2 126/106/2
f 300/118/2 240/115/2 302/113/2
f 270/119/2 375/117/2 139/112/2
f 181/120/2 293/42/2 363/114/2
f 213/111/2 167/121/2 166/109/2
f 270/119/2 195/125/2 375/117/2
f 300/118/2 127/122/2 240/115/2
f 298/123/2 127/122/2 300/118/2
f 361/124/2 293/42/2 181/120/2
f 211/127/2 167/121/2 213/111/2
f 268/128/2 195/126/2 270/119/2
f 296/129/2 127/122/2 298/123/2
f 180/130/2 293/42/2 361/124/2
f 268/128/2 378/135/2 195/225/2
f 211/127/2 334/131/2 167/121/2
f 180/130/2 294/132/2 293/42/2
f 151/133/2 127/122/2 296/129/2
f 179/134/2 294/132/2 180/130/2
f 268/128/2 380/136/2 378/135/2
f 151/133/2 243/137/2 127/122/2
f 138/138/2 380/136/2 268/128/2
f 294/140/2 243/137/2 151/141/2
f 382/142/2 294/226/2 179/227/2
f 138/138/2 196/144/2 380/228/2
f 382/142/2 243/137/2 294/143/2
f 138/138/2 382/146/2 196/145/2
f 138/138/2 243/137/2 382/146/2
f 210/147/2 334/131/2 211/127/2
f 266/148/2 243/137/2 138/138/2
f 210/147/2 336/149/2 334/131/2
f 266/148/2 132/150/2 243/137/2
f 132/150/2 245/151/2 243/137/2
f 137/152/2 132/150/2 266/148/2
f 137/152/2 257/153/2 132/150/2
f 257/153/2 133/229/2 132/150/2
f 132/154/2 255/155/2 245/151/2
f 255/155/2 128/156/2 245/151/2
f 133/157/2 128/156/2 255/155/2
f 210/147/2 168/158/2 336/149/2
f 136/159/2 257/153/2 137/152/2
f 177/160/2 178/162/2 357/161/2
f 177/160/2 197/163/2 178/162/2
f 132/164/2 133/166/2 255/165/2
f 114/167/2 168/158/2 210/147/2
f 133/157/2 129/168/2 128/156/2
f 264/169/2 257/153/2 136/159/2
f 252/170/2 129/168/2 133/157/2
f 114/167/2 338/172/2 168/158/2
f 355/173/2 197/163/2 177/160/2
f 262/174/2 257/171/2 264/169/2
f 252/175/2 246/176/2 129/168/2
f 250/177/2 246/176/2 252/175/2
f 262/174/2 134/179/2 257/230/2
f 135/178/2 134/179/2 262/174/2
f 135/178/2 258/180/2 134/179/2
f 176/181/2 197/163/2 355/173/2
f 250/182/2 130/183/2 246/176/2
f 114/167/2 339/184/2 338/172/2
f 260/185/2 258/186/2 135/178/2
f 113/187/2 339/184/2 114/167/2
f 260/185/2 259/190/2 258/186/2
f 131/188/2 130/183/2 250/189/2
f 131/188/2 248/192/2 130/183/2
f 352/193/2 197/163/2 176/181/2
f 352/193/2 198/194/2 197/163/2
f 351/195/2 198/194/2 352/193/2
f 113/187/2 341/196/2 339/184/2
f 175/197/2 198/194/2 351/195/2
f 113/187/2 169/198/2 341/196/2
f 112/199/2 169/198/2 113/187/2
f 174/200/2 198/194/2 175/197/2
f 174/200/2 200/201/2 198/194/2
f 173/202/2 200/201/2 174/200/2
f 112/199/2 344/203/2 169/198/2
f 172/204/2 200/201/2 173/202/2
f 112/199/2 170/205/2 344/203/2
f 347/206/2 200/201/2 172/204/2
f 347/206/2 101/207/2 200/201/2
f 345/208/2 101/207/2 347/206/2
f 112/199/2 171/209/2 170/205/2
f 171/209/2 101/207/2 345/208/2
f 112/199/2 101/207/2 171/209/2
f 208/210/2 101/207/2 112/199/2
f 208/210/2 202/211/2 101/207/2
f 207/212/2 202/211/2 208/210/2
f 207/212/2 102/213/2 202/211/2
f 207/212/2 103/214/2 102/213/2
f 111/215/2 103/214/2 207/212/2
f 111/215/2 104/216/2 103/214/2
f 110/217/2 104/216/2 111/215/2
f 110/217/2 105/218/2 104/216/2
f 110/217/2 106/219/2 105/218/2
f 109/220/2 106/219/2 110/217/2
f 109/220/2 107/221/2 106/219/2
f 108/222/2 107/221/2 109/220/2
s 1
f 197/163/3 199/231/4 1/232/3
f 198/233/4 2/234/5 199/231/4
f 200/235/5 201/236/6 2/234/5
f 101/237/6 3/238/7 201/236/6
f 202/239/7 203/240/8 3/238/7
f 102/241/8 4/242/9 203/240/8
f 103/243/9 5/244/10 4/242/9
f 104/245/10 204/246/11 5/244/10
f 105/247/11 6/248/12 204/246/11
f 106/249/12 205/250/13 6/248/12
f 107/251/13 7/252/14 205/250/13
f 108/253/14 8/254/15 7/252/14
f 109/255/15 9/256/16 8/254/15
f 110/257/17 206/258/18 9/256/16
f 111/259/18 10/260/19 206/258/18
f 207/261/19 11/262/20 10/260/19
f 208/263/20 12/264/21 11/262/20
f 112/265/21 13/266/22 12/264/21
f 113/267/22 209/268/23 13/266/22
f 114/269/23 14/270/24 209/268/23
f 210/271/24 212/272/25 14/270/24
f 211/273/25 15/274/26 212/272/25
f 213/275/26 16/276/27 15/274/26
f 214/277/27 17/278/28 16/276/27
f 215/279/28 18/280/29 17/278/28
f 216/281/29 19/282/30 18/280/29
f 217/283/30 20/284/31 19/282/30
f 115/285/31 21/286/32 20/284/31
f 116/287/32 22/288/33 21/286/32
f 218/289/33 23/290/34 22/288/33
f 219/291/34 220/292/35 23/290/34
f 117/293/35 222/294/36 220/292/35
f 221/295/36 24/296/37 222/294/36
f 223/297/37 25/298/38 24/296/37
f 224/299/38 26/300/39 25/298/38
f 118/301/39 226/302/40 26/300/39
f 225/303/40 27/304/41 226/302/40
f 119/305/42 227/306/43 27/304/41
f 120/307/43 28/308/44 227/306/43
f 121/309/44 29/310/45 28/308/44
f 122/311/45 30/312/46 29/310/45
f 123/313/46 229/314/47 30/312/46
f 228/315/47 231/316/48 229/314/47
f 230/317/49 233/318/50 231/316/48
f 232/319/50 235/320/51 233/318/50
f 234/321/51 236/322/52 235/320/51
f 124/323/52 31/324/53 236/322/52
f 125/325/53 238/326/54 31/324/53
f 237/327/54 32/328/55 238/326/54
f 239/329/55 33/330/56 32/328/55
f 126/331/56 241/332/57 33/330/56
f 240/333/57 242/334/58 241/332/57
f 127/335/58 244/336/59 242/334/58
f 243/337/59 34/338/60 244/336/59
f 245/339/60 35/340/61 34/338/60
f 128/341/61 36/342/62 35/340/61
f 129/343/62 247/344/63 36/342/62
f 246/345/63 37/346/64 247/344/63
f 130/347/65 38/348/66 37/346/64
f 248/349/66 249/350/67 38/351/66
f 131/352/67 251/353/68 249/350/67
f 250/354/68 39/355/69 251/356/68
f 39/357/69 133/358/70 256/359/71
f 256/359/72 132/360/73 133/358/74
f 256/361/75 255/362/76 254/363/77
f 256/364/78 133/365/79 257/366/80
f 256/364/78 257/366/80 40/367/81
f 40/368/81 257/369/80 134/370/82
f 134/370/82 41/371/83 40/368/81
f 41/372/83 258/373/84 259/374/85
f 41/372/83 259/374/85 42/375/86
f 42/376/86 260/377/87 43/378/88
f 260/377/87 261/379/89 43/378/88
f 135/380/89 263/381/90 261/379/89
f 262/382/90 265/383/91 263/381/90
f 264/384/91 44/385/92 265/383/91
f 136/386/92 45/387/93 44/385/92
f 137/388/93 46/389/94 45/387/93
f 266/390/94 267/391/95 46/389/94
f 138/392/95 269/393/96 267/391/95
f 268/394/96 271/395/97 269/393/96
f 270/396/97 47/397/98 271/395/97
f 139/398/98 272/399/99 47/397/98
f 140/400/99 48/401/100 272/399/99
f 273/402/100 274/403/101 48/401/100
f 141/404/101 275/405/102 274/403/101
f 142/406/102 276/407/103 275/405/102
f 143/408/103 49/409/104 276/407/103
f 144/410/104 50/411/105 49/409/104
f 145/412/105 277/413/106 50/411/105
f 146/414/106 278/415/107 277/413/106
f 147/416/107 279/417/108 278/415/107
f 148/418/108 281/419/109 279/417/108
f 280/420/109 283/421/110 281/419/109
f 283/421/110 284/422/111 285/423/112
f 285/424/112 284/422/111 149/425/113
f 285/426/112 149/427/113 51/428/114
f 51/429/114 149/430/113 286/431/115
f 51/429/114 286/431/115 287/432/116
f 287/432/116 288/433/117 289/434/118
f 288/435/117 52/436/119 289/437/118
f 292/438/120 290/439/121 52/436/122
f 52/440/123 150/441/124 53/442/125
f 150/441/124 318/443/126 53/442/125
f 317/444/127 54/445/128 318/443/127
f 54/445/128 294/446/129 295/447/130
f 295/448/130 151/449/131 55/450/132
f 151/451/131 297/452/133 55/453/132
f 296/454/133 299/455/134 297/452/133
f 298/456/134 301/457/135 299/455/134
f 300/458/135 303/459/136 301/457/135
f 302/460/136 56/461/137 303/459/136
f 304/462/137 306/463/138 56/461/137
f 305/464/138 308/465/139 306/463/138
f 307/466/139 309/467/140 308/465/139
f 152/468/140 57/469/141 309/467/140
f 310/470/141 311/471/142 57/469/141
f 153/472/142 58/473/143 311/471/142
f 154/474/143 313/475/144 58/473/143
f 312/476/144 315/477/145 313/475/144
f 314/478/145 316/479/146 315/477/145
f 155/480/146 318/481/147 316/479/146
f 317/482/148 320/483/149 318/481/148
f 319/484/149 322/485/150 320/483/149
f 321/486/150 59/487/151 322/485/150
f 156/488/151 323/489/152 59/487/151
f 157/490/152 324/491/153 323/489/152
f 158/492/153 60/493/154 324/491/153
f 159/494/154 61/495/155 60/493/154
f 160/496/155 62/497/156 61/495/155
f 325/498/156 326/499/157 62/497/156
f 161/500/157 63/501/158 326/499/157
f 327/502/158 64/503/159 63/501/158
f 328/504/159 65/505/160 64/503/159
f 162/506/160 329/507/161 65/505/160
f 163/508/161 330/509/162 329/507/161
f 164/510/162 66/511/163 330/509/162
f 331/512/163 67/513/164 66/511/163
f 332/514/164 68/515/165 67/513/164
f 165/516/165 69/517/166 68/515/165
f 333/518/166 70/519/167 69/517/166
f 166/520/167 71/521/168 70/519/167
f 167/522/168 335/523/169 71/521/168
f 334/524/169 72/525/170 335/523/169
f 336/526/170 337/527/171 72/525/170
f 168/528/171 73/529/172 337/527/171
f 338/530/172 340/531/173 73/529/172
f 339/532/173 342/533/174 340/531/173
f 341/534/174 343/535/175 342/533/174
f 169/536/175 74/537/176 343/535/175
f 344/538/176 75/539/177 74/537/176
f 170/540/177 76/541/178 75/539/177
f 171/542/178 346/543/179 76/541/178
f 345/544/179 348/545/180 346/543/179
f 347/546/180 77/547/181 348/545/180
f 172/548/181 78/549/182 77/547/181
f 173/550/182 349/551/183 78/549/182
f 174/552/183 350/553/184 349/551/183
f 175/554/184 79/555/185 350/553/184
f 351/556/185 353/557/186 79/555/185
f 352/558/186 354/559/187 353/557/186
f 176/560/187 80/561/188 354/559/187
f 355/562/188 356/563/189 80/561/188
f 177/564/189 358/565/190 356/563/189
f 357/566/191 81/567/192 358/565/190
f 178/568/192 1/569/3 81/567/192
f 359/570/193 382/163/194 179/571/195
f 179/572/195 360/573/196 359/574/193
f 180/575/197 362/576/198 360/573/196
f 361/577/198 82/578/199 362/576/198
f 181/579/199 83/580/200 82/578/199
f 363/581/200 84/582/201 83/580/200
f 182/583/201 364/584/202 84/582/201
f 183/585/202 365/586/203 364/584/202
f 184/587/203 85/588/204 365/586/203
f 366/589/204 86/590/205 85/588/204
f 367/329/206 87/591/207 86/328/205
f 368/592/208 88/593/209 87/594/207
f 185/595/210 89/596/211 88/597/209
f 186/598/211 90/599/212 89/600/211
f 187/601/212 91/602/213 90/603/212
f 188/604/213 92/405/214 91/602/213
f 369/605/214 93/606/215 92/607/214
f 189/608/215 370/609/216 93/606/215
f 190/610/216 371/611/217 370/609/216
f 191/612/217 94/613/218 371/611/217
f 192/614/218 95/615/219 94/613/218
f 372/616/219 96/617/220 95/615/219
f 373/24/220 97/618/221 96/617/220
f 374/619/221 98/620/222 97/618/221
f 193/621/222 99/622/223 98/620/222
f 99/471/223 194/623/224 375/472/225
f 99/471/223 375/472/225 376/624/226
f 376/625/226 375/626/225 195/627/227
f 376/625/226 195/627/227 377/628/228
f 377/629/228 195/630/227 378/631/229
f 378/631/229 379/632/230 377/629/228
f 379/632/230 380/633/231 381/634/232
f 381/635/232 380/636/231 196/637/233
f 381/635/232 196/637/233 100/638/234
f 100/639/234 196/640/233 382/641/194
f 100/639/234 382/641/194 359/569/193
f 197/163/3 198/233/4 199/231/4
f 198/233/4 200/235/5 2/234/5
f 200/235/5 101/237/6 201/236/6
f 101/237/6 202/239/7 3/238/7
f 202/239/7 102/241/8 203/240/8
f 102/241/8 103/243/9 4/242/9
f 103/243/9 104/245/10 5/244/10
f 104/245/10 105/247/11 204/246/11
f 105/247/11 106/249/12 6/248/12
f 106/249/12 107/251/13 205/250/13
f 107/251/13 108/253/14 7/252/14
f 108/253/14 109/255/15 8/254/15
f 109/255/15 110/257/17 9/256/16
f 110/257/17 111/259/18 206/258/18
f 111/259/18 207/261/19 10/260/19
f 207/261/19 208/263/20 11/262/20
f 208/263/20 112/265/21 12/264/21
f 112/265/21 113/267/22 13/266/22
f 113/267/22 114/269/23 209/268/23
f 114/269/23 210/271/24 14/270/24
f 210/271/24 211/273/25 212/272/25
f 211/273/25 213/275/26 15/274/26
f 213/275/26 214/277/27 16/276/27
f 214/277/27 215/279/28 17/278/28
f 215/279/28 216/281/29 18/280/29
f 216/281/29 217/283/30 19/282/30
f 217/283/30 115/285/31 20/284/31
f 115/285/31 116/287/32 21/286/32
f 116/287/32 218/289/33 22/288/33
f 218/289/33 219/291/34 23/290/34
f 219/291/34 117/293/35 220/292/35
f 117/293/35 221/295/36 222/294/36
f 221/295/36 223/297/37 24/296/37
f 223/297/37 224/299/38 25/298/38
f 224/299/38 118/301/39 26/300/39
f 118/301/39 225/303/40 226/302/40
f 225/303/40 119/305/42 27/304/41
f 119/305/42 120/307/43 227/306/43
f 120/307/43 121/309/44 28/308/44
f 121/309/44 122/311/45 29/310/45
f 122/311/45 123/313/46 30/312/46
f 123/313/46 228/315/47 229/314/47
f 228/315/47 230/317/49 231/316/48
f 230/317/49 232/319/50 233/318/50
f 232/319/50 234/321/51 235/320/51
f 234/321/51 124/323/52 236/322/52
f 124/323/52 125/325/53 31/324/53
f 125/325/53 237/327/54 238/326/54
f 237/327/54 239/329/55 32/328/55
f 239/329/55 126/331/56 33/330/56
f 126/331/56 240/333/57 241/332/57
f 240/333/57 127/335/58 242/334/58
f 127/335/58 243/337/59 244/336/59
f 243/337/59 245/339/60 34/338/60
f 245/339/60 128/341/61 35/340/61
f 128/341/61 129/343/62 36/342/62
f 129/343/62 246/345/63 247/344/63
f 246/345/63 130/347/65 37/346/64
f 130/347/65 248/642/66 38/348/66
f 248/349/66 131/352/67 249/350/67
f 131/352/67 250/643/68 251/353/68
f 250/354/68 252/644/235 39/355/69
f 39/357/69 252/645/235 133/358/70
f 256/359/72 253/646/236 132/360/73
f 256/361/75 133/647/237 255/362/76
f 134/370/82 258/648/84 41/371/83
f 42/376/86 259/649/85 260/377/87
f 260/377/87 135/380/89 261/379/89
f 135/380/89 262/382/90 263/381/90
f 262/382/90 264/384/91 265/383/91
f 264/384/91 136/386/92 44/385/92
f 136/386/92 137/388/93 45/387/93
f 137/388/93 266/390/94 46/389/94
f 266/390/94 138/392/95 267/391/95
f 138/392/95 268/394/96 269/393/96
f 268/394/96 270/396/97 271/395/97
f 270/396/97 139/398/98 47/397/98
f 139/398/98 140/400/99 272/399/99
f 140/400/99 273/402/100 48/401/100
f 273/402/100 141/404/101 274/403/101
f 141/404/101 142/406/102 275/405/102
f 142/406/102 143/408/103 276/407/103
f 143/408/103 144/410/104 49/409/104
f 144/410/104 145/412/105 50/411/105
f 145/412/105 146/414/106 277/413/106
f 146/414/106 147/416/107 278/415/107
f 147/416/107 148/418/108 279/417/108
f 148/418/108 280/420/109 281/419/109
f 280/420/109 282/650/238 283/421/110
f 283/421/110 282/650/238 284/422/111
f 287/432/116 286/651/115 288/433/117
f 288/435/117 290/439/239 52/436/119
f 292/438/120 291/652/240 290/439/121
f 52/440/123 290/653/241 150/441/124
f 150/441/124 317/444/126 318/443/126
f 317/444/127 293/654/242 54/445/128
f 54/445/128 293/654/242 294/446/129
f 295/448/130 294/655/129 151/449/131
f 151/451/131 296/454/133 297/452/133
f 296/454/133 298/456/134 299/455/134
f 298/456/134 300/458/135 301/457/135
f 300/458/135 302/460/136 303/459/136
f 302/460/136 304/462/137 56/461/137
f 304/462/137 305/464/138 306/463/138
f 305/464/138 307/466/139 308/465/139
f 307/466/139 152/468/140 309/467/140
f 152/468/140 310/470/141 57/469/141
f 310/470/141 153/472/142 311/471/142
f 153/472/142 154/474/143 58/473/143
f 154/474/143 312/476/144 313/475/144
f 312/476/144 314/478/145 315/477/145
f 314/478/145 155/480/146 316/479/146
f 155/480/146 317/482/147 318/481/147
f 317/482/148 319/484/149 320/483/149
f 319/484/149 321/486/150 322/485/150
f 321/486/150 156/488/151 59/487/151
f 156/488/151 157/490/152 323/489/152
f 157/490/152 158/492/153 324/491/153
f 158/492/153 159/494/154 60/493/154
f 159/494/154 160/496/155 61/495/155
f 160/496/155 325/498/156 62/497/156
f 325/498/156 161/500/157 326/499/157
f 161/500/157 327/502/158 63/501/158
f 327/502/158 328/504/159 64/503/159
f 328/504/159 162/506/160 65/505/160
f 162/506/160 163/508/161 329/507/161
f 163/508/161 164/510/162 330/509/162
f 164/510/162 331/512/163 66/511/163
f 331/512/163 332/514/164 67/513/164
f 332/514/164 165/516/165 68/515/165
f 165/516/165 333/518/166 69/517/166
f 333/518/166 166/520/167 70/519/167
f 166/520/167 167/522/168 71/521/168
f 167/522/168 334/524/169 335/523/169
f 334/524/169 336/526/170 72/525/170
f 336/526/170 168/528/171 337/527/171
f 168/528/171 338/530/172 73/529/172
f 338/530/172 339/532/173 340/531/173
f 339/532/173 341/534/174 342/533/174
f 341/534/174 169/536/175 343/535/175
f 169/536/175 344/538/176 74/537/176
f 344/538/176 170/540/177 75/539/177
f 170/540/177 171/542/178 76/541/178
f 171/542/178 345/544/179 346/543/179
f 345/544/179 347/546/180 348/545/180
f 347/546/180 172/548/181 77/547/181
f 172/548/181 173/550/182 78/549/182
f 173/550/182 174/552/183 349/551/183
f 174/552/183 175/554/184 350/553/184
f 175/554/184 351/556/185 79/555/185
f 351/556/185 352/558/186 353/557/186
f 352/558/186 176/560/187 354/559/187
f 176/560/187 355/562/188 80/561/188
f 355/562/188 177/564/189 356/563/189
f 177/564/189 357/566/191 358/565/190
f 357/566/191 178/568/192 81/567/192
f 178/568/192 197/146/3 1/569/3
f 179/572/195 180/575/197 360/573/196
f 180/575/197 361/577/198 362/576/198
f 361/577/198 181/579/199 82/578/199
f 181/579/199 363/581/200 83/580/200
f 363/581/200 182/583/201 84/582/201
f 182/583/201 183/585/202 364/584/202
f 183/585/202 184/587/203 365/586/203
f 184/587/203 366/589/204 85/588/204
f 366/589/204 367/656/206 86/590/205
f 367/329/206 368/657/208 87/591/207
f 368/592/208 185/658/210 88/593/209
f 185/595/210 186/659/211 89/596/211
f 186/598/211 187/660/212 90/599/212
f 187/601/212 188/604/213 91/602/213
f 188/604/213 369/406/214 92/405/214
f 369/605/214 189/608/215 93/606/215
f 189/608/215 190/610/216 370/609/216
f 190/610/216 191/612/217 371/611/217
f 191/612/217 192/614/218 94/613/218
f 192/614/218 372/616/219 95/615/219
f 372/616/219 373/24/220 96/617/220
f 373/24/220 374/619/221 97/618/221
f 374/619/221 193/621/222 98/620/222
f 193/621/222 194/623/224 99/622/223
f 378/631/229 380/633/231 379/632/230
